<svg width="28" height="28" viewBox="0 0 28 28" fill="none" xmlns="http://www.w3.org/2000/svg">
<path d="M14 0C11.2311 0 8.52431 0.821085 6.22202 2.35942C3.91973 3.89776 2.12532 6.08427 1.06569 8.64243C0.00606574 11.2006 -0.271181 14.0155 0.269012 16.7313C0.809205 19.447 2.14258 21.9416 4.10051 23.8995C6.05844 25.8574 8.553 27.1908 11.2687 27.731C13.9845 28.2712 16.7994 27.9939 19.3576 26.9343C21.9157 25.8747 24.1022 24.0803 25.6406 21.778C27.1789 19.4757 28 16.7689 28 14C27.9956 10.2883 26.5192 6.72988 23.8947 4.10532C21.2701 1.48075 17.7117 0.00435901 14 0ZM14 26.3529C11.5568 26.3529 9.16851 25.6284 7.13708 24.2711C5.10565 22.9137 3.52234 20.9845 2.58738 18.7273C1.65241 16.4701 1.40778 13.9863 1.88442 11.5901C2.36106 9.19382 3.53757 6.99274 5.26516 5.26515C6.99275 3.53756 9.19383 2.36106 11.5901 1.88442C13.9863 1.40778 16.4701 1.65241 18.7273 2.58737C20.9845 3.52233 22.9137 5.10564 24.2711 7.13707C25.6285 9.1685 26.3529 11.5568 26.3529 14C26.3493 17.2751 25.0467 20.415 22.7308 22.7308C20.415 25.0467 17.2751 26.3493 14 26.3529ZM9.33334 14C9.33334 14.9794 9.64151 15.9341 10.2142 16.7286C10.7869 17.5232 11.5951 18.1175 12.5243 18.4272C13.4535 18.7369 14.4566 18.7464 15.3915 18.4544C16.3264 18.1624 17.1457 17.5836 17.7333 16.8C17.8646 16.6253 18.0598 16.5098 18.2762 16.4791C18.4925 16.4483 18.7122 16.5047 18.887 16.636C19.0617 16.7672 19.1771 16.9625 19.2079 17.1788C19.2387 17.3952 19.1822 17.6149 19.051 17.7896C18.2557 18.8494 17.1472 19.6321 15.8824 20.0269C14.6175 20.4217 13.2606 20.4086 12.0036 19.9894C10.7467 19.5703 9.65349 18.7663 8.87882 17.6913C8.10416 16.6164 7.68731 15.325 7.68731 14C7.68731 12.675 8.10416 11.3836 8.87882 10.3086C9.65349 9.2337 10.7467 8.42971 12.0036 8.01054C13.2606 7.59137 14.6175 7.57827 15.8824 7.97308C17.1472 8.36789 18.2557 9.15061 19.051 10.2104C19.1822 10.3851 19.2387 10.6048 19.2079 10.8212C19.1771 11.0375 19.0617 11.2328 18.887 11.364C18.7122 11.4952 18.4925 11.5517 18.2762 11.5209C18.0598 11.4902 17.8646 11.3747 17.7333 11.2C17.1457 10.4164 16.3264 9.83764 15.3915 9.5456C14.4566 9.25356 13.4535 9.26308 12.5243 9.57281C11.5951 9.88254 10.7869 10.4768 10.2142 11.2713C9.64151 12.0659 9.33334 13.0205 9.33334 14Z" fill="white"/>
</svg>
