<svg width="35" height="65" viewBox="0 0 35 65" fill="none" xmlns="http://www.w3.org/2000/svg">
<path d="M0 0V65H35V0H0ZM14.5012 2.88248H20.493C20.7986 2.88248 21.0917 3.00396 21.3078 3.22019C21.5239 3.43642 21.6453 3.72968 21.6453 4.03548C21.6453 4.34127 21.5239 4.63454 21.3078 4.85077C21.0917 5.06699 20.7986 5.18847 20.493 5.18847H14.5012C14.1956 5.18847 13.9026 5.06699 13.6865 4.85077C13.4704 4.63454 13.349 4.34127 13.349 4.03548C13.349 3.72968 13.4704 3.43642 13.6865 3.22019C13.9026 3.00396 14.1956 2.88248 14.5012 2.88248ZM17.428 63.4881C16.8793 63.4881 16.343 63.3253 15.8868 63.0203C15.4306 62.7153 15.075 62.2818 14.8651 61.7746C14.6551 61.2674 14.6002 60.7092 14.7072 60.1708C14.8143 59.6323 15.0785 59.1377 15.4664 58.7495C15.8544 58.3613 16.3487 58.0969 16.8868 57.9898C17.4249 57.8827 17.9827 57.9377 18.4896 58.1478C18.9965 58.3579 19.4297 58.7137 19.7345 59.1701C20.0394 59.6266 20.2021 60.1633 20.2021 60.7123C20.2021 61.4485 19.9098 62.1545 19.3895 62.6751C18.8693 63.1957 18.1637 63.4881 17.428 63.4881ZM32.5514 57.0732H2.16049V7.63858H32.5514V57.0732Z" fill="white"/>
</svg>
