<svg width="57" height="46" viewBox="0 0 57 46" fill="none" xmlns="http://www.w3.org/2000/svg">
<path d="M51.3 0H5.7C2.565 0 0.0285 2.5875 0.0285 5.75L0 40.25C0 43.4125 2.565 46 5.7 46H51.3C54.435 46 57 43.4125 57 40.25V5.75C57 2.5875 54.435 0 51.3 0ZM50.16 12.2188L30.0105 24.9263C29.0985 25.5013 27.9015 25.5013 26.9895 24.9263L6.84 12.2188C6.55422 12.0569 6.30397 11.8383 6.10438 11.5761C5.9048 11.3138 5.76003 11.0135 5.67884 10.6932C5.59765 10.3729 5.58173 10.0393 5.63205 9.71263C5.68236 9.38595 5.79786 9.07296 5.97155 8.79262C6.14525 8.51227 6.37352 8.27039 6.64257 8.08161C6.91161 7.89284 7.21583 7.76109 7.53681 7.69436C7.85779 7.62762 8.18886 7.62728 8.50997 7.69335C8.83108 7.75942 9.13557 7.89053 9.405 8.07875L28.5 20.125L47.595 8.07875C47.8644 7.89053 48.1689 7.75942 48.49 7.69335C48.8111 7.62728 49.1422 7.62762 49.4632 7.69436C49.7842 7.76109 50.0884 7.89284 50.3574 8.08161C50.6265 8.27039 50.8548 8.51227 51.0284 8.79262C51.2021 9.07296 51.3176 9.38595 51.368 9.71263C51.4183 10.0393 51.4023 10.3729 51.3212 10.6932C51.24 11.0135 51.0952 11.3138 50.8956 11.5761C50.696 11.8383 50.4458 12.0569 50.16 12.2188Z" fill="white"/>
</svg>
