<svg width="70" height="66" viewBox="0 0 70 66" fill="none" xmlns="http://www.w3.org/2000/svg">
<g clip-path="url(#clip0_238_101)">
<path d="M35 0C15.2835 0 0 13.6171 0 32.01C0 41.6308 4.18168 49.944 10.9922 55.6862C11.5637 56.1686 11.9088 56.8446 11.9323 57.5677L12.1229 63.4381C12.1838 65.3104 14.2349 66.5288 16.0521 65.7724L22.9991 62.8805C23.5879 62.6357 24.2482 62.5901 24.8686 62.7513C28.061 63.5789 31.4584 64.0197 35 64.0197C54.7165 64.0197 70 50.4026 70 32.0097C70 13.6169 54.7165 0 35 0Z" fill="white"/>
<path d="M13.9832 41.3711L24.2644 25.9918C25.8996 23.5452 29.4018 22.9359 31.8556 24.671L40.0328 30.4538C40.3979 30.712 40.8424 30.851 41.2989 30.8498C41.7554 30.8485 42.199 30.707 42.5626 30.4468L53.6062 22.5443C55.08 21.4896 57.0045 23.1528 56.0179 24.6287L45.7367 40.0083C44.1012 42.4547 40.5988 43.0639 38.1452 41.3288L29.9678 35.5461C29.6027 35.2879 29.1583 35.149 28.7019 35.1502C28.2455 35.1515 27.802 35.2929 27.4385 35.553L16.3944 43.4555C14.9205 44.5099 12.9963 42.8471 13.9832 41.3711Z" fill="#5C5C5C"/>
</g>
<defs>
<clipPath id="clip0_238_101">
<rect width="70" height="66" fill="white"/>
</clipPath>
</defs>
</svg>
