<svg width="45" height="45" viewBox="0 0 45 45" fill="none" xmlns="http://www.w3.org/2000/svg">
<path d="M9.05 19.475C12.65 26.55 18.45 32.35 25.525 35.95L31.025 30.45C31.725 29.75 32.7 29.55 33.575 29.825C36.375 30.75 39.375 31.25 42.5 31.25C43.163 31.25 43.7989 31.5134 44.2678 31.9822C44.7366 32.4511 45 33.087 45 33.75V42.5C45 43.163 44.7366 43.7989 44.2678 44.2678C43.7989 44.7366 43.163 45 42.5 45C31.2283 45 20.4183 40.5223 12.448 32.552C4.47766 24.5817 0 13.7717 0 2.5C0 1.83696 0.263392 1.20107 0.732233 0.732233C1.20107 0.263392 1.83696 0 2.5 0H11.25C11.913 0 12.5489 0.263392 13.0178 0.732233C13.4866 1.20107 13.75 1.83696 13.75 2.5C13.75 5.625 14.25 8.625 15.175 11.425C15.45 12.3 15.25 13.275 14.55 13.975L9.05 19.475Z" fill="white"/>
</svg>
