<svg width="70" height="69" viewBox="0 0 70 69" fill="none" xmlns="http://www.w3.org/2000/svg">
<path d="M35.0018 0C15.6633 0 5.75782e-06 15.6633 5.75782e-06 35.0017C-0.00420865 42.3491 2.30522 49.5113 6.60067 55.4723C10.8961 61.4333 16.9595 65.8904 23.9307 68.2114C25.6808 68.5159 26.3388 67.4659 26.3388 66.5453C26.3388 65.7158 26.2933 62.9611 26.2933 60.028C17.5009 61.6486 15.2258 57.8859 14.5257 55.9153C14.1302 54.9072 12.4256 51.8026 10.9381 50.9695C9.71299 50.315 7.9629 48.6944 10.8925 48.6524C13.6507 48.6069 15.6178 51.19 16.2758 52.2401C19.426 57.5324 24.4557 56.0448 26.4683 55.1277C26.7763 52.8526 27.6934 51.3231 28.7014 50.448C20.9135 49.573 12.7756 46.5523 12.7756 33.1642C12.7756 29.356 14.1302 26.2093 16.3633 23.7592C16.0133 22.8841 14.7882 19.2965 16.7133 14.4837C16.7133 14.4837 19.643 13.5632 26.3388 18.0679C29.1883 17.2783 32.1323 16.8814 35.0893 16.8883C38.0644 16.8883 41.0396 17.2804 43.8397 18.0679C50.5355 13.5177 53.4652 14.4837 53.4652 14.4837C55.3903 19.2965 54.1652 22.8841 53.8152 23.7592C56.0448 26.2093 57.4029 29.314 57.4029 33.1642C57.4029 46.5978 49.223 49.573 41.4351 50.448C42.7021 51.5401 43.7977 53.6402 43.7977 56.9233C43.7977 61.6031 43.7522 65.3658 43.7522 66.5488C43.7522 67.4659 44.4102 68.5579 46.1603 68.2079C53.1076 65.8615 59.1443 61.3957 63.4207 55.439C67.6972 49.4823 69.9983 42.3346 70 35.0017C70 15.6633 54.3367 0 34.9983 0" fill="white"/>
</svg>
